<?xml version="1.0" standalone="no"?>
<!DOCTYPE svg PUBLIC "-//W3C//DTD SVG 20010904//EN"
 "http://www.w3.org/TR/2001/REC-SVG-20010904/DTD/svg10.dtd">
<svg version="1.0" xmlns="http://www.w3.org/2000/svg"
 width="567.000000pt" height="588.000000pt" viewBox="0 0 567.000000 588.000000"
 preserveAspectRatio="xMidYMid meet">

<g transform="translate(0.000000,588.000000) scale(0.100000,-0.100000)"
fill="#000000" stroke="none">
<path d="M3305 5816 c-10 -15 -14 -33 -10 -49 5 -19 -4 -43 -35 -95 l-41 -70
-42 24 c-141 79 -343 66 -498 -32 -110 -69 -214 -216 -222 -314 -4 -51 21 -28
-267 -243 -107 -80 -267 -204 -355 -274 -158 -127 -198 -171 -138 -157 33 8
329 119 533 199 447 176 445 175 493 156 15 -6 9 -13 -35 -43 -60 -42 -117
-112 -150 -184 -25 -56 -31 -184 -10 -244 18 -53 -23 -176 -78 -236 -23 -25
-50 -65 -60 -90 -11 -24 -33 -62 -50 -83 -17 -21 -38 -60 -46 -86 -22 -76 -16
-341 12 -491 7 -37 6 -38 -11 -24 -14 11 -60 15 -216 18 l-199 4 -16 33 c-8
18 -24 41 -35 51 -13 12 -19 30 -19 60 0 48 -38 104 -71 104 -49 0 -99 -45
-99 -89 0 -11 -4 -22 -9 -25 -6 -4 -247 160 -311 211 -2 3 3 18 13 34 18 33
21 58 11 108 -5 25 -23 44 -85 88 -44 31 -79 61 -79 67 0 7 14 28 30 48 34 42
89 63 263 102 104 23 126 31 116 40 -7 8 -336 126 -349 126 -7 0 -58 -20 -114
-45 -101 -46 -101 -46 -159 -128 -32 -45 -62 -88 -66 -95 -6 -10 -14 -10 -35
-2 -15 5 -33 10 -41 10 -7 0 -42 -42 -79 -92 -69 -97 -80 -133 -49 -163 15
-16 15 -19 -1 -46 -14 -24 -16 -36 -7 -61 16 -44 14 -53 -14 -87 -24 -27 -30
-30 -73 -24 l-47 5 -42 -58 c-24 -32 -43 -67 -43 -78 0 -25 105 -128 188 -185
72 -49 172 -98 218 -107 29 -6 35 -2 73 48 44 59 48 79 26 118 -22 38 -18 58
15 92 23 22 37 29 54 24 30 -7 84 9 110 33 l21 20 131 -86 131 -86 -19 -44
c-16 -37 -18 -50 -8 -73 12 -30 47 -50 85 -50 18 0 22 -4 18 -19 -8 -31 39
-71 82 -71 29 0 35 -4 35 -20 0 -34 46 -73 80 -68 24 4 31 0 40 -23 25 -60 97
-60 155 1 l27 28 119 -85 c66 -47 124 -93 129 -103 11 -20 52 -51 352 -264
l207 -147 -24 -36 c-46 -67 -22 -135 47 -135 32 0 37 -3 42 -29 7 -35 61 -72
94 -64 15 4 22 1 22 -9 0 -25 30 -46 66 -46 34 0 34 0 34 -47 0 -27 -3 -71 -6
-99 l-6 -50 -177 3 c-273 6 -630 31 -890 63 -130 17 -247 33 -261 36 -14 3
-72 17 -130 29 -182 40 -340 90 -347 111 -2 6 18 22 44 36 209 114 655 200
1176 227 97 5 173 13 180 20 8 8 5 16 -9 32 -35 39 -48 41 -217 29 -578 -39
-997 -128 -1210 -257 l-57 -35 -93 60 c-132 86 -203 119 -225 106 -46 -29 -17
-66 104 -132 43 -23 95 -56 114 -71 l35 -29 -24 -43 c-18 -32 -24 -59 -25
-106 -1 -38 -5 -62 -11 -59 -5 2 -71 31 -146 65 -75 33 -143 61 -151 61 -23 0
-41 -27 -34 -52 4 -18 29 -33 108 -66 57 -24 138 -64 181 -90 67 -40 85 -57
124 -117 26 -38 62 -89 80 -112 l34 -42 -198 2 -198 2 -3 -24 c-6 -37 22 -51
101 -51 66 0 266 -15 353 -26 31 -3 59 -19 105 -56 131 -105 316 -212 489
-283 169 -68 475 -139 740 -172 204 -25 670 -25 860 0 251 33 489 94 675 172
l106 44 111 -10 c123 -10 144 -7 154 23 9 31 -14 46 -84 55 l-64 8 89 57 c115
74 223 167 301 260 l63 76 76 11 c42 6 124 14 182 18 129 7 151 14 151 47 0
42 -25 47 -167 36 -70 -6 -140 -13 -155 -16 -16 -3 -28 -4 -28 -1 0 2 14 35
31 72 17 38 33 92 36 121 4 36 11 55 22 59 8 3 61 8 116 11 55 3 110 7 122 10
39 8 41 67 3 79 -17 6 -207 -10 -257 -21 -40 -8 -26 17 57 102 59 60 80 88 80
108 0 31 -22 43 -55 30 -12 -5 -50 -42 -84 -81 -34 -40 -66 -73 -71 -73 -5 0
-22 12 -37 26 -118 110 -416 199 -843 253 -268 34 -265 34 -280 16 -10 -12
-11 -24 -4 -43 9 -26 12 -27 139 -39 287 -29 594 -91 769 -157 75 -28 186
-100 186 -120 0 -17 -108 -112 -188 -165 -125 -84 -306 -158 -497 -206 -178
-45 -285 -62 -530 -86 -253 -25 -259 -26 -263 -61 -5 -44 20 -50 160 -38 618
52 1006 174 1297 408 35 28 68 49 72 46 45 -27 -64 -256 -134 -283 -86 -33
-110 -43 -177 -67 -73 -26 -209 -85 -280 -121 -28 -15 -35 -24 -35 -48 0 -50
43 -46 187 21 145 66 240 105 245 100 6 -5 -105 -104 -182 -162 -38 -29 -113
-78 -165 -111 l-95 -58 -145 -3 c-80 -1 -192 1 -250 6 l-105 8 85 43 c142 72
181 114 131 140 -15 9 -42 -1 -131 -44 -288 -142 -441 -191 -668 -216 -120
-12 -129 -15 -135 -40 -9 -34 18 -49 88 -49 84 0 271 33 370 65 93 30 106 31
244 16 57 -6 133 -11 170 -12 36 -1 77 -4 91 -8 22 -7 15 -11 -45 -29 -287
-86 -545 -116 -945 -109 -345 6 -537 30 -815 102 -162 42 -250 73 -390 139
-86 41 -258 139 -284 162 -30 27 113 -15 369 -108 211 -77 258 -90 282 -77 21
11 24 52 6 66 -7 6 -58 25 -113 43 -219 72 -318 116 -425 190 -58 39 -182 123
-277 186 -94 63 -181 126 -192 140 -26 33 -28 106 -5 164 19 46 36 50 87 20
74 -44 293 -103 517 -139 640 -105 1513 -131 2050 -61 321 41 609 123 640 180
10 19 9 26 -8 42 -19 20 -20 20 -111 -17 -112 -44 -235 -76 -401 -104 -153
-25 -301 -43 -306 -38 -3 2 1 80 7 173 10 147 15 174 35 210 40 68 28 144 -33
215 -19 21 -36 58 -45 97 -16 61 -16 63 6 74 20 11 105 64 213 135 29 19 55
43 58 53 3 10 22 29 43 42 l37 25 70 -29 c85 -35 228 -78 261 -78 43 0 40 28
-7 76 -24 24 -39 44 -34 44 5 0 61 -18 125 -40 146 -50 207 -60 216 -35 6 14
-17 42 -99 122 -58 56 -102 103 -99 103 4 0 36 -9 72 -20 80 -25 119 -26 127
-3 8 19 -101 127 -347 345 -85 76 -198 177 -250 224 -112 101 -247 205 -345
264 -38 23 -104 75 -145 114 -98 94 -160 138 -262 186 -129 60 -291 98 -326
76 -15 -9 -15 2 -1 42 6 16 27 41 47 55 146 99 230 260 220 422 l-5 76 29 -6
c38 -9 107 25 149 73 57 64 83 136 83 227 0 86 -20 147 -70 212 l-25 33 38 86
c26 57 47 89 63 97 14 7 29 24 34 39 22 63 -63 109 -99 54z m70 -31 c0 -22
-31 -33 -47 -17 -17 17 -1 44 24 40 15 -2 23 -10 23 -23z m-96 -156 c-16 -34
-33 -59 -36 -56 -5 6 55 117 63 117 2 0 -10 -27 -27 -61z m-169 -16 c106 -43
104 -54 -15 -78 -99 -20 -204 -62 -298 -117 -76 -45 -187 -145 -187 -168 0 -7
26 11 58 41 87 83 178 139 302 185 67 26 240 67 248 60 11 -12 -15 -26 -88
-46 -159 -42 -315 -121 -438 -221 l-58 -47 -34 19 c-19 10 -50 18 -69 19 l-34
0 7 41 c13 79 101 197 191 254 48 31 143 69 195 79 51 9 176 -2 220 -21z m181
-179 c27 -50 46 -144 29 -144 -5 0 -11 8 -14 18 -11 32 -53 63 -93 68 -84 11
-153 -66 -153 -171 0 -28 -6 -59 -12 -68 -21 -27 -97 -48 -200 -54 l-97 -6 11
36 c10 33 15 37 57 42 115 16 149 45 176 152 9 37 19 73 20 80 2 6 48 26 102
43 54 17 105 38 113 46 21 21 32 14 61 -42z m-380 -117 c-11 -46 -28 -75 -52
-88 -25 -13 -82 -4 -99 16 -9 11 -4 18 27 38 127 80 134 82 124 34z m369 -27
c18 -18 26 -51 20 -90 -3 -28 -43 -60 -72 -60 -28 0 -78 38 -78 60 0 17 18 11
25 -8 7 -24 49 -44 72 -35 66 25 50 143 -19 143 -27 0 -58 -27 -58 -51 0 -10
-4 -21 -10 -24 -17 -10 -11 18 10 53 16 26 26 32 55 32 22 0 43 -8 55 -20z
m-18 -45 c19 -43 -32 -76 -62 -40 -10 12 -10 15 3 15 8 0 17 -3 20 -7 2 -5 2
-3 1 4 -2 6 2 14 9 16 7 2 9 7 5 11 -3 4 -16 2 -28 -4 -20 -11 -21 -10 -10 9
15 29 48 27 62 -4z m-728 -34 c7 -11 -106 -102 -222 -179 -48 -32 -145 -97
-217 -145 -71 -47 -143 -97 -159 -109 -36 -28 -84 -58 -93 -58 -17 0 651 498
669 499 9 1 19 -3 22 -8z m461 -140 c3 -5 1 -12 -5 -16 -5 -3 -10 1 -10 9 0
18 6 21 15 7z m93 -156 l1 -20 -9 20 c-5 11 -8 31 -8 45 l0 25 8 -25 c4 -14 8
-34 8 -45z m-38 13 c0 -51 -27 -153 -54 -206 -25 -49 -92 -132 -106 -132 -4 0
11 48 35 108 71 178 108 262 117 262 4 0 8 -15 8 -32z m-321 -15 c-13 -9 -45
-38 -72 -65 -53 -54 -66 -61 -40 -21 19 29 124 115 132 107 3 -2 -6 -12 -20
-21z m-70 -196 c-44 -89 -82 -164 -85 -166 -2 -2 -4 22 -4 55 0 45 7 74 30
121 30 64 116 167 131 157 4 -2 -28 -78 -72 -167z m126 123 c3 -5 22 -10 41
-10 36 0 37 -1 28 -49 -6 -29 -9 -31 -53 -31 -68 0 -75 8 -54 58 18 43 27 50
38 32z m292 -32 c-3 -7 -5 -2 -5 12 0 14 2 19 5 13 2 -7 2 -19 0 -25z m-490
-55 c-25 -29 -40 -108 -35 -189 6 -82 0 -90 -13 -18 -6 32 -4 67 6 116 14 69
41 126 52 114 4 -3 -1 -14 -10 -23z m206 -30 c30 -5 37 -9 32 -22 -4 -9 -12
-29 -17 -45 -11 -28 -12 -28 -70 -23 -33 3 -62 7 -64 10 -3 2 5 26 18 51 18
39 26 46 43 41 11 -3 37 -9 58 -12z m-40 -120 c36 -5 47 -16 28 -27 -4 -3 -14
-26 -21 -52 l-13 -47 -61 7 c-33 3 -64 10 -69 15 -6 6 0 32 14 66 22 54 25 56
54 51 16 -4 47 -9 68 -13z m-70 -145 c42 -10 48 -14 43 -32 -3 -12 -9 -38 -12
-58 -6 -36 -9 -38 -44 -38 -56 0 -101 11 -107 26 -3 8 3 39 13 70 15 49 20 55
38 49 12 -4 43 -11 69 -17z m-1324 -77 c57 -21 100 -40 95 -43 -5 -3 -47 -15
-94 -27 -129 -33 -169 -56 -207 -120 -38 -65 -40 -60 67 -135 68 -48 78 -59
83 -93 6 -35 1 -47 -78 -163 -100 -149 -118 -170 -149 -170 -13 0 -65 30 -117
68 -52 37 -127 89 -166 115 -40 27 -73 50 -73 51 0 2 147 211 270 383 63 89
68 93 150 132 47 22 92 40 100 40 8 0 62 -17 119 -38z m1565 -27 c14 -37 5
-111 -20 -162 -34 -68 -124 -158 -188 -188 -56 -26 -151 -32 -218 -14 -42 12
-88 61 -88 95 0 28 26 92 51 124 23 29 26 7 4 -35 -49 -95 21 -166 149 -152
63 7 115 36 179 100 66 66 100 132 101 200 1 47 17 65 30 32z m136 -21 c113
-42 217 -106 334 -206 21 -18 20 -18 -39 -12 -33 4 -81 13 -107 22 -38 12 -56
13 -105 3 -102 -21 -176 -83 -218 -182 -22 -53 -19 -165 5 -238 17 -50 18 -63
8 -80 -15 -24 -27 -25 -34 -5 -4 8 -11 15 -17 15 -5 0 -2 -9 8 -20 18 -20 18
-21 -6 -46 -32 -35 -79 -54 -132 -54 -42 0 -46 2 -81 55 -29 45 -41 55 -64 55
-38 0 -52 -17 -52 -62 0 -25 -5 -38 -14 -38 -71 0 -166 231 -166 404 0 85 12
127 25 87 3 -11 27 -33 53 -48 42 -25 57 -28 137 -28 81 0 95 3 142 29 71 39
158 129 193 200 31 61 38 115 20 160 -9 25 -8 26 18 20 15 -4 56 -18 92 -31z
m-418 -26 c54 -11 57 -13 52 -37 -3 -14 -7 -36 -10 -49 -5 -23 -8 -23 -65 -18
-78 7 -92 19 -83 71 8 52 12 59 33 51 9 -4 42 -12 73 -18z m-19 -125 c55 -4
57 -5 57 -33 0 -22 -6 -32 -26 -39 -68 -26 -124 0 -124 57 0 30 3 34 18 28 9
-4 43 -10 75 -13z m-1768 -32 c6 -10 -64 -84 -73 -76 -7 7 46 86 58 86 5 0 12
-4 15 -10z m2619 -113 c89 -42 171 -97 301 -203 118 -95 205 -180 205 -199 0
-20 -51 -45 -92 -45 -26 0 -57 17 -133 73 -175 129 -341 235 -351 225 -2 -3
22 -22 53 -43 56 -37 253 -183 303 -224 l25 -21 -24 -20 c-13 -11 -31 -20 -42
-20 -10 0 -98 61 -196 136 l-178 136 -7 51 c-9 68 -49 107 -109 107 -35 0 -47
-6 -75 -36 -51 -54 -44 -121 18 -167 34 -25 93 -24 129 2 l26 19 54 -42 c30
-24 99 -90 154 -147 79 -82 112 -127 157 -208 l57 -104 -36 -24 -36 -24 -53
38 c-125 90 -453 355 -495 400 -78 83 -101 150 -79 228 17 62 56 102 125 131
50 20 73 24 140 22 69 -3 91 -8 159 -41z m-219 -103 c21 -8 46 -59 39 -78 -8
-22 -14 -21 -67 15 -44 29 -56 47 -40 62 8 9 46 9 68 1z m-40 -91 c30 -20 36
-28 23 -31 -23 -4 -55 14 -68 38 -15 27 -2 25 45 -7z m-1765 -138 c133 -95
163 -123 121 -112 -31 8 -291 199 -285 209 9 14 15 10 164 -97z m-590 -70 c0
-58 -11 -58 -98 1 l-83 55 30 35 c17 19 31 40 31 47 0 6 27 -15 60 -48 47 -47
60 -66 60 -90z m890 70 c11 -13 7 -15 -26 -15 -36 1 -38 2 -20 15 25 19 31 19
46 0z m-1036 -86 c82 -55 105 -76 100 -88 -4 -9 -7 -26 -7 -38 -1 -20 -4 -19
-56 15 -111 71 -149 92 -180 103 -17 6 -31 16 -31 22 0 15 41 57 56 57 6 0 60
-32 118 -71z m1048 23 c11 -11 -23 -142 -38 -142 -7 0 -19 -3 -28 -6 -14 -5
-16 5 -16 73 0 44 3 83 7 87 9 8 63 0 75 -12z m-110 -99 c4 -33 0 -41 -36 -75
-23 -21 -45 -38 -50 -38 -14 0 -46 32 -46 46 0 15 99 104 116 104 7 0 14 -17
16 -37z m1401 -36 c-3 -6 -1 -7 4 -4 13 8 36 -17 25 -28 -4 -5 -2 -5 4 -2 12
7 37 -16 40 -38 1 -7 -7 -16 -18 -18 -13 -4 -17 -10 -12 -18 14 -23 -67 44
-96 79 -31 37 -31 65 0 37 17 -15 17 -14 15 15 l-3 31 24 -22 c13 -12 21 -26
17 -32z m-1233 -9 c0 -17 -3 -18 -15 -8 -8 7 -15 21 -15 32 0 17 3 18 15 8 8
-7 15 -21 15 -32z m-973 18 c0 -8 -6 -12 -14 -9 -7 3 -10 9 -7 14 8 14 21 11
21 -5z m937 -51 c3 -8 1 -15 -4 -15 -5 0 -7 -6 -4 -14 3 -7 -16 -37 -44 -66
l-48 -53 -34 30 -33 30 28 35 c22 27 38 37 69 41 22 3 42 11 44 16 5 16 19 13
26 -4z m452 -11 c38 -4 68 -25 88 -61 3 -6 -7 -26 -23 -44 l-30 -32 -123 32
c-160 42 -173 47 -203 87 l-25 33 137 -5 c76 -3 157 -7 179 -10z m-321 -42
c-3 -3 -16 1 -30 8 -18 10 -22 16 -13 21 13 8 53 -20 43 -29z m849 -138 l81
-53 44 -106 c35 -85 50 -111 75 -126 27 -16 32 -27 41 -84 12 -72 6 -79 -45
-50 -39 22 -73 18 -119 -15 l-42 -31 -82 59 c-195 139 -373 260 -392 266 -11
3 -31 15 -45 26 -24 19 -24 20 -4 20 12 0 38 -7 57 -15 46 -19 71 -19 111 0
42 20 67 65 70 123 2 26 11 73 21 104 l18 57 66 -61 c36 -34 101 -85 145 -114z
m-8 161 l90 -1 63 -63 c66 -66 144 -121 228 -160 36 -17 52 -30 56 -47 6 -31
-9 -31 -108 1 -161 53 -310 138 -420 240 -40 36 -45 44 -25 39 14 -4 66 -8
116 -9z m405 -12 c13 -16 12 -17 -3 -4 -17 13 -22 21 -14 21 2 0 10 -8 17 -17z
m-2238 0 c-7 -2 -13 -11 -13 -19 0 -9 -5 -12 -10 -9 -13 8 6 35 24 34 7 0 6
-2 -1 -6z m594 -75 c-19 -12 -54 -9 -65 5 -5 6 -8 26 -5 42 l5 30 38 -35 c26
-23 35 -37 27 -42z m8 64 c-3 -3 -11 0 -18 7 -9 10 -8 11 6 5 10 -3 15 -9 12
-12z m352 -24 l21 -23 -50 -63 -50 -62 -29 21 c-16 11 -29 25 -29 31 0 15 91
118 104 118 7 0 22 -10 33 -22z m1319 10 c4 -6 3 -8 -3 -5 -17 11 -39 -21 -25
-35 9 -9 12 -8 12 4 0 30 34 24 126 -19 51 -24 118 -48 150 -53 33 -6 75 -13
94 -16 25 -5 30 -8 18 -13 -22 -8 -139 -1 -134 8 3 4 -11 5 -30 3 -21 -3 -34
0 -34 7 0 7 -4 9 -10 6 -24 -15 -210 57 -210 81 0 11 26 44 35 44 2 0 7 -5 11
-12z m-1206 -70 c0 -12 -14 -10 -28 4 -19 19 -14 29 8 16 11 -7 20 -16 20 -20z
m-372 -59 l27 -11 -24 -9 c-17 -7 -30 -5 -47 6 -25 16 -29 31 -17 60 5 15 8
13 20 -9 8 -15 26 -32 41 -37z m337 31 c17 -19 17 -21 -19 -75 l-37 -56 -30
18 c-34 20 -32 28 14 90 36 48 46 51 72 23z m473 -26 c-3 -14 -5 -12 -10 9 -3
19 -2 25 4 19 6 -6 8 -18 6 -28z m-266 -74 c73 -55 131 -104 130 -108 -7 -14
-18 -7 -215 138 -58 43 -81 70 -59 70 6 0 70 -45 144 -100z m-431 -10 c21 -17
22 -19 6 -25 -24 -10 -64 2 -71 21 -3 8 -1 24 5 36 10 18 12 18 23 3 7 -10 23
-25 37 -35z m1921 -21 c-2 -29 4 -57 17 -82 l19 -37 -36 -30 c-126 -101 -252
-199 -280 -219 l-33 -23 -26 26 c-14 14 -32 26 -39 26 -35 0 -6 36 190 239
109 112 161 154 181 148 6 -2 9 -24 7 -48z m176 29 c28 -28 2 -88 -38 -88 -11
0 -27 11 -36 25 -24 36 -6 75 34 75 15 0 33 -5 40 -12z m-495 -40 c63 -14 97
-26 97 -35 0 -7 -4 -13 -10 -13 -5 0 -10 -6 -10 -14 0 -19 -80 -107 -91 -100
-13 8 -101 184 -92 184 5 0 52 -10 106 -22z m-1483 -48 c10 0 11 -3 3 -11 -6
-6 -21 -9 -34 -7 -18 2 -25 10 -27 33 l-4 30 24 -22 c13 -13 31 -23 38 -23z
m1373 -32 c7 -13 27 -46 44 -75 l31 -52 -46 -54 c-26 -29 -58 -62 -71 -72 -29
-22 -36 -13 -45 62 -5 44 -3 58 9 67 9 6 19 32 21 56 8 74 14 90 29 90 8 0 21
-10 28 -22z m-313 -247 c0 -6 -4 -13 -10 -16 -5 -3 -10 1 -10 9 0 9 5 16 10
16 6 0 10 -4 10 -9z m-30 -31 c0 -13 -5 -18 -14 -14 -8 3 -12 12 -9 20 8 21
23 17 23 -6z m143 -4 l31 -12 -38 -23 c-34 -21 -38 -22 -55 -7 -22 20 -35 21
-27 1 3 -8 1 -15 -4 -15 -13 0 -13 22 0 55 11 29 25 29 93 1z m261 -22 c28
-28 34 -54 14 -54 -10 0 -10 -2 -1 -8 7 -4 8 -13 4 -20 -5 -9 -21 0 -54 32
-26 24 -47 48 -47 53 0 32 50 30 84 -3z m-106 -26 c9 -12 34 -39 55 -60 20
-21 37 -43 37 -48 0 -13 -95 -153 -119 -174 -20 -18 -22 -18 -91 40 -39 33
-89 73 -111 91 l-39 31 47 42 c110 98 184 124 221 78z m226 -70 c9 -37 7 -64
-9 -94 -24 -46 -19 -125 10 -168 24 -36 25 -42 25 -204 0 -92 -4 -172 -8 -178
-4 -7 -61 -14 -144 -19 l-137 -7 6 104 c3 56 7 105 9 107 2 2 17 -8 34 -23 17
-14 39 -26 47 -26 50 0 136 97 149 168 7 38 -3 51 -82 108 -28 20 -28 22 -12
41 29 32 50 94 44 128 -5 25 -1 37 18 58 31 33 42 34 50 5z m112 -85 c-3 -16
-9 -50 -12 -76 -6 -44 -9 -48 -30 -44 -17 3 -21 0 -17 -12 4 -11 -1 -9 -16 6
-21 23 -27 69 -12 107 8 21 47 45 75 46 15 0 17 -5 12 -27z m-496 -88 c66 -58
122 -110 125 -115 10 -16 -12 -12 -29 5 -8 8 -19 15 -24 15 -9 0 -97 66 -180
136 -34 29 -40 39 -31 50 6 8 14 14 16 14 3 0 58 -47 123 -105z m-149 -21 c15
-8 18 -13 9 -14 -8 0 -26 -12 -39 -25 -29 -31 -32 -31 -61 0 l-24 25 34 35
c34 35 34 35 46 14 6 -12 22 -28 35 -35z m114 -93 c-3 -2 -11 2 -20 9 -8 7
-15 9 -15 4 0 -5 -9 -20 -19 -33 -16 -21 -20 -22 -39 -10 -28 18 -28 27 4 60
l27 28 33 -27 c18 -14 31 -28 29 -31z m471 32 c-7 -7 -26 7 -26 19 0 6 6 6 15
-2 9 -7 13 -15 11 -17z m49 12 c11 0 21 -8 23 -18 3 -15 -2 -18 -30 -15 -21 2
-33 8 -34 18 -1 21 7 34 15 24 3 -5 15 -9 26 -9z m-755 -28 c0 -5 -4 -5 -10
-2 -5 3 -10 14 -10 23 0 15 2 15 10 2 5 -8 10 -19 10 -23z m309 -55 l31 -28
-20 -22 c-25 -26 -38 -27 -68 -4 l-22 17 22 32 c13 18 24 33 25 33 1 0 16 -13
32 -28z m-206 -12 c3 -11 1 -18 -4 -14 -5 3 -9 12 -9 20 0 20 7 17 13 -6z
m143 -87 c-6 -6 -36 9 -36 18 0 5 9 4 20 -3 10 -7 18 -14 16 -15z m-1652 -547
c123 -78 128 -92 21 -60 -44 12 -65 27 -114 80 -34 36 -61 70 -61 76 0 7 7 5
18 -4 9 -9 71 -50 136 -92z"/>
<path d="M3083 3425 c0 -8 4 -12 9 -9 5 3 6 10 3 15 -9 13 -12 11 -12 -6z"/>
<path d="M3490 2420 c0 -5 4 -10 9 -10 6 0 13 5 16 10 3 6 -1 10 -9 10 -9 0
-16 -4 -16 -10z"/>
<path d="M3880 4813 c-36 -14 -72 -47 -90 -83 -19 -36 -20 -60 -20 -320 0
-291 1 -302 44 -348 45 -50 60 -52 483 -52 308 0 401 3 426 14 39 16 94 76
104 114 5 15 8 144 8 287 0 250 -1 262 -22 302 -13 23 -37 52 -55 65 l-33 23
-415 2 c-228 1 -422 -1 -430 -4z m832 -112 l33 -29 0 -257 0 -257 -33 -29 -32
-29 -386 0 -385 0 -25 25 -25 25 3 271 3 271 24 19 c22 18 44 19 407 19 l384
0 32 -29z"/>
<path d="M4145 4608 c-3 -7 -18 -53 -34 -103 -30 -90 -92 -265 -106 -297 -6
-16 -1 -18 44 -18 l51 0 12 45 12 46 80 -3 79 -3 15 -42 c14 -43 14 -43 62
-43 l49 0 -45 128 c-25 70 -60 166 -77 215 l-30 87 -54 0 c-34 0 -55 -5 -58
-12z m84 -150 c32 -102 33 -100 -21 -105 -25 -2 -49 0 -52 5 -4 8 42 162 49
162 2 0 12 -28 24 -62z"/>
<path d="M4477 4614 c-3 -3 -6 -100 -7 -215 l-1 -209 46 0 45 0 0 215 0 215
-38 0 c-21 0 -41 -3 -45 -6z"/>
<path d="M1464 1896 c-10 -26 1 -51 26 -63 36 -17 261 -59 440 -82 184 -24
368 -38 618 -47 167 -6 185 -5 202 11 25 23 25 30 0 55 -18 18 -33 20 -177 20
-304 0 -764 49 -984 106 -73 18 -118 18 -125 0z"/>
<path d="M2368 1560 c-25 -15 -22 -47 5 -63 58 -36 706 -94 755 -68 24 13 30
52 10 69 -7 5 -87 12 -178 16 -178 7 -377 26 -545 52 -16 2 -38 -1 -47 -6z"/>
<path d="M3069 756 c-69 -28 -105 -53 -152 -105 -84 -93 -119 -237 -82 -342
39 -108 156 -161 310 -140 120 17 126 22 152 119 25 94 34 110 70 114 15 2 28
9 31 16 3 9 -23 12 -110 12 -120 0 -171 -13 -104 -25 21 -4 40 -14 43 -22 3
-8 -2 -44 -12 -80 -23 -84 -53 -106 -138 -100 -69 4 -103 26 -135 88 -20 38
-23 55 -20 130 3 69 9 97 33 144 94 193 328 245 376 84 7 -21 15 -39 19 -39 3
0 14 25 24 55 23 67 17 78 -59 100 -79 23 -179 19 -246 -9z"/>
<path d="M888 758 c-48 -13 -49 -24 -2 -25 20 -1 40 -7 44 -13 8 -13 -5 -77
-68 -339 -22 -90 -46 -167 -53 -172 -8 -5 -24 -9 -36 -9 -13 0 -23 -4 -23 -8
0 -13 235 -22 311 -13 103 13 164 57 189 134 22 70 -4 126 -73 157 l-38 17 48
25 c63 32 93 77 93 138 0 57 -28 93 -86 109 -48 13 -255 13 -306 -1z m272 -46
c51 -38 32 -144 -34 -188 -27 -17 -146 -36 -146 -22 0 4 12 57 26 117 18 80
30 111 42 115 30 8 86 -3 112 -22z m-60 -255 c49 -17 74 -69 61 -127 -17 -76
-77 -120 -164 -120 -78 0 -84 11 -62 111 33 156 29 149 83 148 26 0 63 -5 82
-12z"/>
<path d="M1969 598 c-77 -20 -120 -108 -85 -175 8 -17 32 -41 53 -54 63 -37
83 -60 83 -94 0 -44 -32 -75 -77 -75 -29 0 -43 8 -76 41 -31 33 -41 39 -48 28
-12 -18 -3 -70 14 -81 31 -21 87 -28 132 -18 86 19 125 63 125 139 0 45 -33
92 -82 117 -66 34 -89 92 -50 127 33 30 77 22 111 -20 29 -35 32 -36 47 -21
20 20 12 63 -14 76 -29 15 -95 20 -133 10z"/>
<path d="M2363 589 c-108 -42 -183 -155 -183 -277 0 -103 41 -145 139 -144 66
0 123 26 169 75 28 30 14 44 -19 18 -84 -65 -164 -69 -194 -10 -27 52 -19 105
17 100 3 0 32 6 65 15 118 31 177 86 171 161 -6 68 -79 95 -165 62z m97 -34
c21 -25 -4 -88 -47 -124 -34 -28 -127 -60 -140 -47 -12 12 32 101 70 143 31
34 47 43 72 43 18 0 38 -7 45 -15z"/>
<path d="M3715 596 c-37 -17 -56 -38 -96 -107 l-30 -54 5 45 c4 25 9 62 12 83
6 34 4 37 -17 37 -33 0 -106 -23 -121 -38 -9 -9 -5 -12 20 -12 20 0 35 -6 38
-15 5 -12 -15 -112 -68 -345 -2 -11 7 -15 37 -15 l40 0 18 70 c32 124 48 167
82 221 43 67 69 82 97 57 19 -17 20 -17 39 6 22 27 24 52 7 69 -15 15 -25 15
-63 -2z"/>
<path d="M1526 585 c-52 -18 -127 -94 -162 -164 -24 -46 -28 -69 -29 -132 0
-85 14 -113 62 -122 51 -9 96 12 157 76 l59 62 -7 -47 c-12 -80 17 -108 84
-82 36 15 86 61 76 71 -2 2 -19 -5 -38 -17 -30 -18 -37 -18 -47 -6 -15 17 -11
42 35 230 19 76 34 140 34 142 0 10 -38 2 -55 -10 -17 -12 -23 -12 -47 0 -34
17 -72 17 -122 -1z m109 -45 c16 -18 17 -26 6 -77 -22 -111 -143 -267 -193
-248 -20 8 -38 48 -38 83 1 71 75 212 129 245 35 22 74 21 96 -3z"/>
<path d="M3935 576 c-83 -38 -127 -101 -145 -208 -15 -83 -2 -136 41 -172 25
-22 41 -26 90 -26 74 0 122 23 175 83 69 78 97 214 59 287 -32 63 -129 79
-220 36z m130 -28 c27 -21 27 -23 23 -102 -10 -163 -104 -281 -188 -236 -65
35 -37 242 42 317 52 49 81 54 123 21z"/>
<path d="M4298 582 c-52 -17 -63 -32 -23 -32 14 0 28 -7 31 -15 3 -8 -9 -75
-27 -149 -25 -107 -30 -143 -23 -168 26 -91 160 -54 225 62 28 49 40 43 32
-15 -15 -110 38 -133 135 -59 40 31 32 53 -9 23 -70 -49 -74 -5 -21 209 21 84
35 155 30 158 -5 3 -21 3 -37 -1 -24 -5 -29 -13 -39 -56 -17 -74 -68 -187
-107 -241 -44 -60 -77 -82 -110 -74 -34 9 -33 34 10 202 19 75 35 145 35 155
0 24 -34 24 -102 1z"/>
<path d="M4810 584 c-63 -22 -72 -34 -26 -34 46 0 47 18 -13 -255 -59 -271
-57 -264 -94 -280 -30 -13 -24 -14 78 -14 91 1 104 3 75 11 -19 5 -37 11 -38
13 -4 3 28 157 33 163 1 1 15 -3 31 -9 70 -27 153 -1 216 69 45 50 57 72 74
137 34 127 -3 215 -91 215 -53 0 -118 -49 -152 -115 -10 -18 -18 -25 -21 -17
-4 12 10 79 24 116 8 21 -34 21 -96 0z m246 -55 c45 -50 4 -209 -72 -286 -48
-47 -82 -55 -123 -27 -21 15 -23 22 -17 68 10 72 67 186 116 230 46 41 69 45
96 15z"/>
</g>
</svg>
